<?xml version="1.0" standalone="no"?>
<!DOCTYPE svg PUBLIC "-//W3C//DTD SVG 20010904//EN"
 "http://www.w3.org/TR/2001/REC-SVG-20010904/DTD/svg10.dtd">
<svg version="1.0" xmlns="http://www.w3.org/2000/svg"
 width="450.000000pt" height="450.000000pt" viewBox="0 0 450.000000 450.000000"
 preserveAspectRatio="xMidYMid meet">
<metadata>
Created by potrace 1.11, written by Peter Selinger 2001-2013
</metadata>
<g transform="translate(0.000000,450.000000) scale(0.100000,-0.100000)"
fill="#000000" stroke="none">
<path d="M0 2250 l0 -2250 2250 0 2250 0 0 2250 0 2250 -2250 0 -2250 0 0
-2250z m3445 1236 c52 -24 101 -72 132 -129 17 -30 18 -92 21 -902 2 -611 0
-882 -8 -910 -17 -62 -70 -126 -131 -160 l-54 -30 -985 -3 -985 -2 -267 -268
-268 -267 0 1245 0 1245 24 50 c29 60 76 107 136 134 44 20 60 21 1190 21
l1145 0 50 -24z"/>
</g>
</svg>
